<svg xmlns="http://www.w3.org/2000/svg"
    style="shape-rendering:geometricPrecision;text-rendering:geometricPrecision;image-rendering:optimizeQuality;"
    viewBox="0 0 850 850" x="0px" y="0px">
    <g ><path fill="white" class="fil0" d="M72.08 294.39l100.05 0 248.7 -171.51c2.19,-1.78 4.98,-2.85 8.02,-2.85l48.7 0c11.69,0 22.33,4.79 30,12.46 7.67,7.67 12.46,18.31 12.46,29.99l0 521.7c0,11.68 -4.79,22.32 -12.46,29.99 -7.67,7.67 -18.31,12.46 -30,12.46l-48.7 0c-3.04,0 -5.83,-1.07 -8.02,-2.85l-248.7 -171.51 -100.05 0c-11.64,0 -22.24,-4.77 -29.94,-12.46 -7.75,-7.77 -12.51,-18.36 -12.51,-29.99l0 -172.98c0,-11.64 4.77,-22.24 12.46,-29.94 7.77,-7.75 18.36,-12.51 29.99,-12.51zm654.98 -88.32c28.82,28.82 51.33,62.74 66.62,99.69 15.28,36.92 23.35,76.79 23.35,117.57 0,40.78 -8.07,80.66 -23.35,117.56 -15.3,36.96 -37.8,70.88 -66.62,99.7 -15.24,15.24 -32.57,17.83 -46.53,12.94 -5.6,-1.97 -10.62,-5.17 -14.71,-9.24 -4.1,-4.05 -7.3,-9.09 -9.29,-14.76 -4.88,-13.94 -2.29,-31.29 12.94,-46.52 21.86,-22.06 36.8,-45.5 49.28,-73.83 11.02,-26.86 16.84,-55.96 16.84,-85.85 0,-30.14 -5.91,-59.46 -17.1,-86.5 -11.18,-26.99 -27.73,-51.89 -49.02,-73.18 -15.22,-15.22 -17.83,-32.57 -12.93,-46.52 1.98,-5.65 5.17,-10.69 9.24,-14.76 4.05,-4.05 9.1,-7.25 14.75,-9.24 13.96,-4.89 31.3,-2.29 46.53,12.94zm43.2 109.31c-13.96,-33.73 -34.62,-64.81 -61.16,-91.35 -7.32,-7.32 -14.73,-8.9 -20.23,-6.98 -1.89,0.66 -3.66,1.81 -5.13,3.28 -1.48,1.48 -2.62,3.25 -3.28,5.14 -1.93,5.5 -0.34,12.91 6.97,20.22 23.58,23.58 41.97,51.31 54.48,81.52 12.49,30.18 19.08,62.76 19.08,96.12 0,33.12 -6.5,65.47 -18.82,95.47 -12.18,32.31 -31.72,57.09 -54.74,82.17 -7.32,7.32 -8.9,14.72 -6.98,20.22 0.66,1.9 1.81,3.67 3.28,5.14 1.42,1.46 3.2,2.6 5.14,3.28 5.5,1.92 12.9,0.35 20.23,-6.98 26.54,-26.54 47.19,-57.62 61.16,-91.36 13.98,-33.77 21.37,-70.39 21.37,-107.94 0,-37.56 -7.39,-74.17 -21.37,-107.95zm-121.64 13.78c12.46,12.46 22.21,27.19 28.86,43.24 6.63,16.03 10.14,33.31 10.14,50.93 0,17.61 -3.51,34.89 -10.14,50.92 -6.65,16.06 -16.41,30.8 -28.86,43.25 -13.22,12.19 -28.61,19.22 -46.53,12.93 -5.6,-1.97 -10.62,-5.17 -14.71,-9.24 -4.12,-4.13 -7.32,-9.15 -9.29,-14.76 -5.98,-17.08 0.67,-35.07 13.54,-47.08 4.59,-4.75 8.21,-10.26 10.65,-16.17 2.55,-6.16 3.89,-12.9 3.89,-19.85 0,-6.96 -1.34,-13.7 -3.89,-19.86 -2.53,-6.11 -6.34,-11.81 -11.25,-16.72 -15.23,-15.23 -17.82,-32.58 -12.94,-46.52 1.99,-5.67 5.19,-10.71 9.24,-14.76 4.06,-4.06 9.11,-7.27 14.76,-9.24 13.96,-4.9 31.3,-2.3 46.53,12.93zm5.44 52.86c-5.31,-12.84 -13.23,-24.73 -23.4,-34.9 -7.32,-7.32 -14.72,-8.9 -20.23,-6.97 -1.89,0.66 -3.67,1.81 -5.14,3.28 -1.47,1.47 -2.62,3.24 -3.28,5.14 -1.92,5.5 -0.34,12.9 6.98,20.22 7.2,7.2 12.85,15.73 16.71,25.06 3.84,9.29 5.87,19.3 5.87,29.48 0,10.18 -2.03,20.18 -5.87,29.47 -4.22,10.2 -9.32,17.04 -16.71,25.07 -7.32,7.32 -8.9,14.72 -6.98,20.22 0.68,1.94 1.82,3.72 3.26,5.16 1.44,1.44 3.22,2.58 5.16,3.26 5.37,1.89 12.55,0.43 19.69,-6.39 10.65,-11.44 17.89,-20.86 23.94,-35.49 5.33,-12.89 8.16,-26.92 8.16,-41.3 0,-14.39 -2.83,-28.42 -8.16,-41.31zm-237.91 -225.15l-227.44 156.84 0 219.24 227.44 156.84 0 -532.92zm61.4 -11.44l-36 0 0 555.8 36 0c4.68,0 8.95,-1.93 12.04,-5.02 3.09,-3.09 5.02,-7.36 5.02,-12.03l0 -521.7c0,-4.67 -1.93,-8.94 -5.02,-12.03 -3.09,-3.09 -7.36,-5.02 -12.04,-5.02zm-314.24 174.36l-91.23 0c-4.69,0 -8.97,1.9 -12.03,4.97 -3.12,3.11 -5.02,7.39 -5.02,12.08l0 172.98c0,4.69 1.9,8.97 4.97,12.03 3.11,3.12 7.39,5.02 12.08,5.02l91.23 0 0 -207.08z"/></g>
    </svg>