<svg xmlns="http://www.w3.org/2000/svg" viewBox="0 0 65 65" x="0px" y="0px">
    <title>discount</title>
    <g>
        <path fill="#fff"
            d="M32,59a8.0354,8.0354,0,0,1-4.1807-1.6533,9.0257,9.0257,0,0,0-2.292-1.1924,9.4544,9.4544,0,0,0-2.69-.1289,7.8211,7.8211,0,0,1-4.3413-.64,7.8689,7.8689,0,0,1-2.7481-3.4771,9.2625,9.2625,0,0,0-1.4257-2.231,9.2748,9.2748,0,0,0-2.2315-1.4262,7.8621,7.8621,0,0,1-3.4765-2.7476,7.8178,7.8178,0,0,1-.64-4.3418,9.4469,9.4469,0,0,0-.1284-2.6889,9.0257,9.0257,0,0,0-1.1924-2.292A8.0354,8.0354,0,0,1,5,32a8.0354,8.0354,0,0,1,1.6533-4.1807,9.0257,9.0257,0,0,0,1.1924-2.292,9.4417,9.4417,0,0,0,.1289-2.69,7.8167,7.8167,0,0,1,.64-4.3413,7.8689,7.8689,0,0,1,3.4771-2.7481,9.2625,9.2625,0,0,0,2.231-1.4257,9.2748,9.2748,0,0,0,1.4262-2.2315,7.8621,7.8621,0,0,1,2.7476-3.4765,7.8394,7.8394,0,0,1,4.3418-.64,9.4313,9.4313,0,0,0,2.6889-.1284,9.0257,9.0257,0,0,0,2.292-1.1924A8.0354,8.0354,0,0,1,32,5a8.0337,8.0337,0,0,1,4.1807,1.6533,9.0422,9.0422,0,0,0,2.292,1.1924,9.4347,9.4347,0,0,0,2.69.1289,7.8254,7.8254,0,0,1,4.3408.64,7.8606,7.8606,0,0,1,2.7481,3.4776,9.2687,9.2687,0,0,0,1.4257,2.2305,9.2649,9.2649,0,0,0,2.2315,1.4262,7.8594,7.8594,0,0,1,3.4765,2.7476,7.8179,7.8179,0,0,1,.64,4.3418,9.459,9.459,0,0,0,.1279,2.6894,9.064,9.064,0,0,0,1.1924,2.2915A8.0324,8.0324,0,0,1,59,32a8.0324,8.0324,0,0,1-1.6543,4.1807,9.0581,9.0581,0,0,0-1.1924,2.292,9.4838,9.4838,0,0,0-.1279,2.6884,7.8119,7.8119,0,0,1-.6406,4.3428,7.8635,7.8635,0,0,1-3.4776,2.7481,9.2765,9.2765,0,0,0-2.23,1.4262,9.2539,9.2539,0,0,0-1.4258,2.2305,7.866,7.866,0,0,1-2.7471,3.477,7.83,7.83,0,0,1-4.3418.64,9.3516,9.3516,0,0,0-2.69.1284,9.0587,9.0587,0,0,0-2.292,1.1924A8.03,8.03,0,0,1,32,59Zm-8.0229-5.0059a7.9765,7.9765,0,0,1,2.0668.2281,10.5764,10.5764,0,0,1,2.85,1.4375A6.4316,6.4316,0,0,0,32,57a6.4234,6.4234,0,0,0,3.1055-1.34,10.5881,10.5881,0,0,1,2.8506-1.438,10.9564,10.9564,0,0,1,3.2871-.1944,6.35,6.35,0,0,0,3.2588-.373,6.3942,6.3942,0,0,0,1.9755-2.67,10.8239,10.8239,0,0,1,1.7852-2.72,10.8272,10.8272,0,0,1,2.72-1.7852,6.4,6.4,0,0,0,2.6719-1.9765,6.3645,6.3645,0,0,0,.373-3.26,10.9994,10.9994,0,0,1,.1944-3.2857,10.5873,10.5873,0,0,1,1.4375-2.85A6.428,6.428,0,0,0,57,32a6.428,6.428,0,0,0-1.3408-3.106,10.5909,10.5909,0,0,1-1.4375-2.85,11.0061,11.0061,0,0,1-.1944-3.2866,6.3626,6.3626,0,0,0-.373-3.2593,6.3849,6.3849,0,0,0-2.67-1.9755,10.8148,10.8148,0,0,1-2.7207-1.7857,10.82,10.82,0,0,1-1.7852-2.72,6.3922,6.3922,0,0,0-1.9765-2.6709,6.3465,6.3465,0,0,0-3.2588-.3731,11.0335,11.0335,0,0,1-3.2871-.1953,10.5943,10.5943,0,0,1-2.85-1.437A6.4308,6.4308,0,0,0,32,7a6.4316,6.4316,0,0,0-3.106,1.34,10.5925,10.5925,0,0,1-2.85,1.438,11.0222,11.0222,0,0,1-3.2861.1944,6.3429,6.3429,0,0,0-3.2593.373,6.3878,6.3878,0,0,0-1.976,2.67,10.8059,10.8059,0,0,1-1.7857,2.7207,10.8093,10.8093,0,0,1-2.72,1.7852,6.3964,6.3964,0,0,0-2.6709,1.9765,6.3608,6.3608,0,0,0-.3731,3.2588,11.0064,11.0064,0,0,1-.1953,3.2871A10.5764,10.5764,0,0,1,8.34,28.894,6.4316,6.4316,0,0,0,7,32a6.4316,6.4316,0,0,0,1.34,3.106,10.5925,10.5925,0,0,1,1.438,2.85,11.0183,11.0183,0,0,1,.1944,3.2861,6.3618,6.3618,0,0,0,.373,3.2593,6.3878,6.3878,0,0,0,2.67,1.976,10.8059,10.8059,0,0,1,2.7207,1.7857,10.8093,10.8093,0,0,1,1.7852,2.72,6.3964,6.3964,0,0,0,1.9765,2.6709,6.3531,6.3531,0,0,0,3.2588.3731C23.16,54.0107,23.5684,53.9941,23.9771,53.9941Z" />
        <path fill="#fff"
            d="M32,52A20,20,0,1,1,52,32,20.023,20.023,0,0,1,32,52Zm0-38A18,18,0,1,0,50,32,18.02,18.02,0,0,0,32,14Z" />
        <path fill="#fff"
            d="M26,31a4.0045,4.0045,0,0,1-4-4V25a4,4,0,0,1,8,0v2A4.0045,4.0045,0,0,1,26,31Zm0-8a2.002,2.002,0,0,0-2,2v2a2,2,0,0,0,4,0V25A2.002,2.002,0,0,0,26,23Z" />
        <path fill="#fff"
            d="M38,43a4.0042,4.0042,0,0,1-4-4V37a4,4,0,0,1,8,0v2A4.0042,4.0042,0,0,1,38,43Zm0-8a2.0023,2.0023,0,0,0-2,2v2a2,2,0,0,0,4,0V37A2.0023,2.0023,0,0,0,38,35Z" />
        <path fill="#fff"
            d="M27.9438,42.1411a1.0009,1.0009,0,0,1-.9135-1.4062l8.1113-18.2813a1,1,0,0,1,1.8281.8115L28.8584,41.5464A1.0011,1.0011,0,0,1,27.9438,42.1411Z" />
    </g>
</svg>