<svg xmlns="http://www.w3.org/2000/svg" xmlns:xlink="http://www.w3.org/1999/xlink" version="1.1"
    x="0px" y="0px" viewBox="0 0 100 100" enable-background="new 0 0 100 100" xml:space="preserve">
    <path fill="white"
        d="M84.6,20.325v46.45H2.8v-46.45H84.6z M93.2,35.275h4v44.399H17.25v-4H93.2V35.275z   M53.8,38.625v-3.6h-7.65c-0.333-1.134-0.833-2.167-1.5-3.101h9.15v-3.55H33.55v3.55h4.1c1.367,0.066,2.567,0.584,3.601,1.551  c0.467,0.399,0.85,0.916,1.149,1.55h-8.85v3.6h9.2c-0.2,0.967-0.7,1.817-1.5,2.55c-0.9,0.934-2.017,1.467-3.351,1.601l-3.199,0.2  l11.449,15.8L49,56.675l-8-11.05c1-0.399,1.917-1.05,2.75-1.95c1.467-1.366,2.333-3.05,2.6-5.05H53.8z M86.75,28.625h4v44.4H10.8v-4  h75.95V28.625z" />
</svg>