<svg xmlns="http://www.w3.org/2000/svg" xmlns:xlink="http://www.w3.org/1999/xlink"
    viewBox="0 0 24 24"  x="0px" y="0px">
    <title>profile</title>
    <g fill="white">
        <path stroke-width=".2"
            d="M7.5,7 C6.39658475,7 5.5,7.89658475 5.5,9 C5.5,10.1034153 6.39658475,11 7.5,11 C8.60341525,11 9.5,10.1034153 9.5,9 C9.5,7.89658475 8.60341525,7 7.5,7 Z M7.5,5 C9.70798475,5 11.5,6.79201525 11.5,9 C11.5,11.2079847 9.70798475,13 7.5,13 C5.29201525,13 3.5,11.2079847 3.5,9 C3.5,6.79201525 5.29201525,5 7.5,5 Z M14,21 C14,21.5522847 13.5522847,22 13,22 C12.4477153,22 12,21.5522847 12,21 L12,16.7143 C12,16.3209718 11.6782007,16 11.2813,16 L3.7188,16 C3.32180582,16 3,16.3209654 3,16.7143 L3,21 C3,21.5522847 2.55228475,22 2,22 C1.44771525,22 1,21.5522847 1,21 L1,16.7143 C1,15.2152234 2.2184054,14 3.7188,14 L11.2813,14 C12.781619,14 14,15.2152479 14,16.7143 L14,21 Z M16.5,2 C18.7079847,2 20.5,3.79201525 20.5,6 C20.5,8.20798475 18.7079847,10 16.5,10 C14.2920153,10 12.5,8.20798475 12.5,6 C12.5,3.79201525 14.2920153,2 16.5,2 Z M16.5,4 C15.3965847,4 14.5,4.89658475 14.5,6 C14.5,7.10341525 15.3965847,8 16.5,8 C17.6034153,8 18.5,7.10341525 18.5,6 C18.5,4.89658475 17.6034153,4 16.5,4 Z M23,18 C23,18.5522847 22.5522847,19 22,19 C21.4477153,19 21,18.5522847 21,18 L21,13.7143 C21,13.3209718 20.6782007,13 20.2813,13 L13.5,13 C12.9477153,13 12.5,12.5522847 12.5,12 C12.5,11.4477153 12.9477153,11 13.5,11 L20.2813,11 C21.781619,11 23,12.2152479 23,13.7143 L23,18 Z"
        />
    </g>
</svg>