<svg xmlns="http://www.w3.org/2000/svg" x="0px" y="0px"
    viewBox="0 0 100 100">
    <g transform="translate(0,-952.36218)">
        <path
            d="m 21,957.36219 c -3.2894,0 -6,2.71061 -6,6 l 0,78.00001 c 0,3.2894 2.7106,6 6,6 l 58,0 c 3.2894,0 6,-2.7106 6,-6 l 0,-78.00001 c 0,-3.28939 -2.7106,-6 -6,-6 z m 0,4 58,0 c 1.1426,0 2,0.85744 2,2 l 0,78.00001 c 0,1.1425 -0.8574,2 -2,2 l -58,0 c -1.1426,0 -2,-0.8575 -2,-2 l 0,-78.00001 c 0,-1.14256 0.8574,-2 2,-2 z m 8,12 c -1.1046,0 -2,0.8954 -2,2 0,1.1046 0.8954,2 2,2 l 42,0 c 1.1046,0 2,-0.8954 2,-2 0,-1.1046 -0.8954,-2 -2,-2 z m 0,18 c -1.1046,0 -2,0.8954 -2,2 0,1.1046 0.8954,2 2,2 l 42,0 c 1.1046,0 2,-0.8954 2,-2 0,-1.1046 -0.8954,-2 -2,-2 z m 0,18.00001 c -1.1046,0 -2,0.8954 -2,2 0,1.1046 0.8954,2 2,2 l 42,0 c 1.1046,0 2,-0.8954 2,-2 0,-1.1046 -0.8954,-2 -2,-2 z m 0,18 c -1.1046,0 -2,0.8954 -2,2 0,1.1046 0.8954,2 2,2 l 28,0 c 1.1046,0 2,-0.8954 2,-2 0,-1.1046 -0.8954,-2 -2,-2 z"
            fill="white"  />
    </g>

</svg>