<svg xmlns="http://www.w3.org/2000/svg" viewBox="0 0 32 32" x="0px" y="0px">

    <title>qr, code, scan, barcode</title>
    <g fill="white">
        <path class="cls-1"
            d="M2.933,12.578a.934.934,0,0,0,.933-.933V9.467a5.6,5.6,0,0,1,5.6-5.6h2.178a.933.933,0,1,0,0-1.867H9.467A7.47,7.47,0,0,0,2,9.467v2.178A.934.934,0,0,0,2.933,12.578Z" />
        <path class="cls-1"
            d="M11.645,28.133H9.467a5.6,5.6,0,0,1-5.6-5.6V20.356a.933.933,0,1,0-1.867,0v2.178A7.47,7.47,0,0,0,9.467,30h2.178a.933.933,0,1,0,0-1.867Z" />
        <path class="cls-1"
            d="M29.067,19.422a.934.934,0,0,0-.933.933v2.178a5.6,5.6,0,0,1-5.6,5.6H20.355a.933.933,0,1,0,0,1.867h2.178A7.47,7.47,0,0,0,30,22.533V20.356A.934.934,0,0,0,29.067,19.422Z" />
        <path class="cls-1"
            d="M22.533,2H20.355a.933.933,0,1,0,0,1.867h2.178a5.6,5.6,0,0,1,5.6,5.6v2.178a.933.933,0,1,0,1.867,0V9.467A7.47,7.47,0,0,0,22.533,2Z" />
        <path class="cls-1"
            d="M11.893,7.6H9.653A2.054,2.054,0,0,0,7.6,9.653v2.24a2.054,2.054,0,0,0,2.053,2.053h2.24a2.054,2.054,0,0,0,2.053-2.053V9.653A2.054,2.054,0,0,0,11.893,7.6Zm.187,4.293a.187.187,0,0,1-.187.187H9.653a.187.187,0,0,1-.187-.187V9.653a.187.187,0,0,1,.187-.187h2.24a.187.187,0,0,1,.187.187Z" />
        <path class="cls-1"
            d="M11.893,18.053H9.653A2.055,2.055,0,0,0,7.6,20.107v2.24A2.055,2.055,0,0,0,9.653,24.4h2.24a2.054,2.054,0,0,0,2.053-2.053v-2.24A2.054,2.054,0,0,0,11.893,18.053Zm.187,4.293a.187.187,0,0,1-.187.187H9.653a.187.187,0,0,1-.187-.187v-2.24a.187.187,0,0,1,.187-.187h2.24a.187.187,0,0,1,.187.187Z" />
        <path class="cls-1"
            d="M20.107,13.947h2.24A2.054,2.054,0,0,0,24.4,11.893V9.653A2.054,2.054,0,0,0,22.347,7.6h-2.24a2.054,2.054,0,0,0-2.053,2.053v2.24A2.054,2.054,0,0,0,20.107,13.947ZM19.92,9.653a.187.187,0,0,1,.187-.187h2.24a.187.187,0,0,1,.187.187v2.24a.187.187,0,0,1-.187.187h-2.24a.187.187,0,0,1-.187-.187Z" />
        <path class="cls-1"
            d="M22.347,24.4A2.054,2.054,0,0,0,24.4,22.347v-2.24a2.054,2.054,0,0,0-2.053-2.053h-2.24a2.054,2.054,0,0,0-2.053,2.053v2.24A2.054,2.054,0,0,0,20.107,24.4ZM19.92,22.347v-2.24a.187.187,0,0,1,.187-.187h2.24a.187.187,0,0,1,.187.187v2.24a.187.187,0,0,1-.187.187h-2.24A.187.187,0,0,1,19.92,22.347Z" />
    </g>
    <text x="0" y="47" fill="#000000" font-size="5px" font-weight="bold"
        font-family="'Helvetica Neue', Helvetica, Arial-Unicode, Arial, Sans-serif">Created by Adam
        Baihaqi
    </text>
    <text x="0" y="52" fill="#000000" font-size="5px" font-weight="bold"
        font-family="'Helvetica Neue', Helvetica, Arial-Unicode, Arial, Sans-serif">from the Noun
        Project
    </text>
</svg>