<svg xmlns="http://www.w3.org/2000/svg" xmlns:xlink="http://www.w3.org/1999/xlink" version="1.1"
    x="0px" y="0px" viewBox="0 0 100 100" enable-background="new 0 0 100 100" xml:space="preserve">
    <g fill="white"><rect x="37.313" y="30.759" width="24.443" height="2.5"/></g>
    <g fill="white"><path d="M53.719,70.133L36.395,51.419c-0.35-0.378-0.431-0.932-0.207-1.395c0.226-0.463,0.719-0.731,1.225-0.7   c0.091,0.007,8.894,0.652,13.208-4.082c4.009-4.399-2.592-12.348-2.66-12.427l1.913-1.61c0.332,0.395,8.062,9.722,2.594,15.721   c-3.442,3.777-8.921,4.705-12.296,4.895l15.381,16.615L53.719,70.133z"/></g>
    <g fill="white"><rect x="37.313" y="39.549" width="24.443" height="2.5"/></g>
    <g fill="white"><path d="M49.537,85.532c-19.754,0-35.826-16.071-35.826-35.824c0-19.753,16.072-35.823,35.826-35.823   c19.753,0,35.824,16.07,35.824,35.823C85.361,69.461,69.291,85.532,49.537,85.532z M49.537,16.385   c-18.376,0-33.326,14.949-33.326,33.323c0,18.375,14.95,33.324,33.326,33.324c18.375,0,33.324-14.949,33.324-33.324   C82.861,31.333,67.912,16.385,49.537,16.385z"/></g>
  </svg>